<?xml version="1.0" encoding="UTF-8"?>
<svg id="Layer_2" data-name="Layer 2" xmlns="http://www.w3.org/2000/svg" viewBox="0 0 162.86 29.25">
  <defs>
    <style>
      .cls-1 {
        fill: #f05423;
      }

      .cls-2 {
        fill: #191d26;
      }
    </style>
  </defs>
  <g id="Layer_1-2" data-name="Layer 1">
    <g>
      <path class="cls-2" d="M22,12.12c-.24-.6-.6-.8-1.24-.8h-.4v-3.32h2c1.8,0,2.48.44,3.08,2.04l4.36,11.64c.4,1.12.72,2.64.72,2.64h.08s.32-1.52.72-2.64l4.32-11.64c.6-1.6,1.32-2.04,3.08-2.04h1.88v3.32h-.4c-.68,0-1.08.2-1.32.8l-6.16,16.12h-4.48l-6.24-16.12Z"/>
      <path class="cls-2" d="M44.44,4.2c0-.6-.32-.88-.88-.88h-1.64V0h3.84c1.8,0,2.56.76,2.56,2.56v21.48c0,.6.32.88.88.88h1.64v3.32h-3.84c-1.8,0-2.56-.76-2.56-2.56V4.2Z"/>
      <path class="cls-2" d="M55.24,12.2c0-.6-.32-.88-.88-.88h-1.64v-3.32h3.68c1.76,0,2.6.72,2.6,2.36v1.28c0,.8-.08,1.4-.08,1.4h.08c.96-2.96,3.28-5.28,6.4-5.28.52,0,1.04.08,1.04.08v3.84s-.52-.12-1.16-.12c-2.48,0-4.76,1.76-5.68,4.76-.36,1.16-.48,2.4-.48,3.64v8.28h-3.88V12.2Z"/>
      <path class="cls-2" d="M78.84,7.52c2.44,0,7.28,1,7.28,4.44v2.08h-3.52v-1.12c0-1.44-2.28-2.08-3.76-2.08-3.96,0-6.92,2.96-6.92,7.24,0,4.6,3.36,7.2,7.12,7.2s6.28-2.8,6.28-2.8l1.68,2.76s-2.88,3.48-8.24,3.48c-6.36,0-10.8-4.52-10.8-10.6s4.36-10.6,10.88-10.6Z"/>
      <path class="cls-2" d="M100.16,7.52c6.04,0,10.92,4.44,10.92,10.56s-4.88,10.64-10.92,10.64-10.88-4.48-10.88-10.64,4.84-10.56,10.88-10.56ZM100.16,25.36c3.84,0,6.96-3.04,6.96-7.28s-3.12-7.2-6.96-7.2-6.92,3-6.92,7.2,3.12,7.28,6.92,7.28Z"/>
      <path class="cls-2" d="M123.16,7.52c4.68,0,6.24,3.12,6.24,3.12h.08s-.08-.6-.08-1.36v-5.08c0-.6-.32-.88-.88-.88h-1.64V0h3.84c1.8,0,2.56.76,2.56,2.56v21.48c0,.6.32.88.88.88h1.64v3.32h-3.72c-1.76,0-2.48-.8-2.48-2.16,0-.6.04-1.04.04-1.04h-.08s-1.68,3.68-6.64,3.68c-5.48,0-8.92-4.32-8.92-10.6s3.8-10.6,9.16-10.6ZM129.52,18.08c0-3.6-1.88-7.2-5.76-7.2-3.16,0-5.8,2.64-5.8,7.24s2.36,7.24,5.72,7.24c3,0,5.84-2.12,5.84-7.28Z"/>
      <path class="cls-1" d="M17.52,24.92c-1,0-1.4-.16-1.72-.8l-3-5.48c-.68-1.28-1.36-1.52-1.36-1.52v-.08s.6-.28,1.52-1.52l5.48-7.52h-4.44l-4.68,6.56c-.13.17-.3.39-.48.63v4.24s.05.09.08.14l3.68,6.8c.88,1.56,1.48,1.88,3.36,1.88h2.8v-3.32h-1.24Z"/>
      <path class="cls-2" d="M6.4,18.72v9.52h-3.88V4.2c0-.6-.32-.88-.88-.88H0V0h3.84c1.8,0,2.56.52,2.56,2.32v13.12"/>
      <path class="cls-2" d="M149.12,25.89c-3.6,0-6.72-2.44-6.96-6.76h10.88v-2.84h-10.72c.6-3.36,3-5.16,5.96-5.16,2.52,0,4.64,1.8,4.76,5.16h3.93c-.45-4.65-3.43-8.24-8.65-8.24-5.76,0-10.16,4.16-10.16,10.6,0,6,4.36,10.6,10.76,10.6,4.8,0,7.8-2.96,7.8-2.96l-1.68-2.76s-2.44,2.36-5.92,2.36Z"/>
      <rect class="cls-1" x="159.4" y="6.03" width="3.46" height="3.46"/>
    </g>
  </g>
</svg>